<svg width="500" height="500" viewBox="0 0 500 500" fill="none" xmlns="http://www.w3.org/2000/svg">
<rect width="500" height="500" fill="#222831"/>
<g clip-path="url(#clip0_88_5)">
<path fill-rule="evenodd" clip-rule="evenodd" d="M299.329 89.6205C374.329 89.6205 450.77 150.656 466.782 224.561L414.06 250.554L466.768 276.537C450.74 350.453 374.319 411.478 299.309 411.478C215.838 411.478 130.318 353.59 81.2373 263.656C67.9473 274.315 52.4773 288.1 38.0472 297.13C42.2672 280.921 45.8773 266.28 48.7673 249.971C45.9173 233.44 42.7472 217.835 38.0472 203.194C52.5473 212.264 67.4573 227.327 80.5873 238.639C129.558 148.031 215.488 89.6205 299.329 89.6205ZM384.399 157.423C373.259 157.423 364.229 166.503 364.229 177.704C364.229 188.906 373.259 197.985 384.399 197.985C395.54 197.985 404.57 188.906 404.57 177.704C404.58 166.513 395.55 157.423 384.399 157.423ZM356.709 67.7506C338.019 61.8582 318.709 59.0428 299.129 59.0428L276.279 26.2528C274.649 23.8998 272.029 22.7234 269.199 23.0552C266.369 23.3971 264.099 25.1668 263.039 27.8314L248.559 65.0759C232.678 68.8164 216.988 74.2664 201.678 81.265L167.718 60.179C165.268 58.6607 162.418 58.6205 159.938 60.0684C157.458 61.5063 156.078 64.0201 156.178 66.8959L157.518 106.524C145.358 114.97 133.618 124.442 122.448 134.859L83.7673 124.985C80.9973 124.291 78.2573 125.085 76.3273 127.217C74.3873 129.329 73.8273 132.154 74.7673 134.869L87.8873 172.385C82.4873 179.213 77.2873 186.301 72.3373 193.642C58.1573 179.384 32.4871 166.764 13.377 161.143C5.37696 158.81 -1.71308 166 0.366932 174.054L18.707 250.454L0.366932 326.853C-1.68308 334.777 5.25696 342.55 12.787 340.347C31.8371 334.746 58.1273 321.544 72.2673 307.326C77.2073 314.646 82.3773 321.715 87.7573 328.532L74.7873 365.676C73.8373 368.391 74.4073 371.207 76.3373 373.318C78.2473 375.46 81.0073 376.275 83.7873 375.56L122.008 365.797C133.318 376.375 145.198 385.978 157.518 394.545L156.198 433.64C156.098 436.515 157.478 439.029 159.958 440.467C162.438 441.925 165.298 441.885 167.738 440.356L201.198 419.592C216.738 426.742 232.678 432.272 248.809 436.053L263.049 472.714C264.109 475.369 266.349 477.128 269.209 477.49C272.039 477.823 274.659 476.645 276.289 474.303L299.339 442.045C319.389 442.045 338.809 439.049 357.229 433.177L388.179 456.585C390.45 458.325 393.29 458.637 395.9 457.43C398.48 456.203 400.1 453.84 400.27 450.965L402.56 411.619C418.63 401.121 433.68 387.566 446.71 373.489L484.1 377.954C486.941 378.295 489.55 377.109 491.182 374.746C492.818 372.393 493.041 369.527 491.732 366.963L475.668 335.109C491.718 308.08 500 279.574 500 250.534C500 221.414 491.659 192.827 475.509 165.719L491.718 133.572C493.018 131.018 492.809 128.142 491.168 125.799C489.532 123.436 486.932 122.25 484.091 122.592L446.24 127.086C433.32 113.21 418.46 99.8468 402.58 89.48L400.25 49.5708C400.08 46.695 398.46 44.332 395.88 43.1053C393.29 41.8886 390.43 42.2204 388.159 43.9298L356.709 67.7506Z" fill="white"/>
</g>
<defs>
<clipPath id="clip0_88_5">
<rect width="500" height="454.545" fill="white" transform="translate(0 23)"/>
</clipPath>
</defs>
</svg>
