<svg width="500" height="500" viewBox="0 0 500 500" fill="none" xmlns="http://www.w3.org/2000/svg">
<path d="M143.333 393.75C134.792 393.75 127.708 386.667 127.708 378.125V335C127.708 326.458 134.792 319.375 143.333 319.375C151.875 319.375 158.958 326.458 158.958 335V378.125C158.958 386.875 151.875 393.75 143.333 393.75Z" fill="#F2F2F2"/>
<path d="M250 393.75C241.458 393.75 234.375 386.667 234.375 378.125V291.667C234.375 283.125 241.458 276.042 250 276.042C258.542 276.042 265.625 283.125 265.625 291.667V378.125C265.625 386.875 258.542 393.75 250 393.75Z" fill="#F2F2F2"/>
<path d="M356.667 393.75C348.125 393.75 341.042 386.667 341.042 378.125V248.542C341.042 240 348.125 232.917 356.667 232.917C365.208 232.917 372.292 240 372.292 248.542V378.125C372.292 386.875 365.417 393.75 356.667 393.75Z" fill="#F2F2F2"/>
<path d="M143.333 274.583C136.25 274.583 130 269.792 128.125 262.708C126.041 254.375 131.041 245.833 139.583 243.75C216.25 224.583 283.75 182.708 335.208 122.917L344.791 111.667C350.416 105.208 360.208 104.375 366.875 110C373.333 115.625 374.166 125.417 368.541 132.083L358.958 143.333C303.333 208.333 230 253.542 147.083 274.167C145.833 274.583 144.583 274.583 143.333 274.583Z" fill="#F2F2F2"/>
<path d="M356.667 198.333C348.125 198.333 341.042 191.25 341.042 182.708V137.5H295.625C287.083 137.5 280 130.417 280 121.875C280 113.333 287.083 106.25 295.625 106.25H356.667C365.208 106.25 372.292 113.333 372.292 121.875V182.917C372.292 191.458 365.417 198.333 356.667 198.333Z" fill="#F2F2F2"/>
<path d="M312.5 473.958H187.5C74.3748 473.958 26.0415 425.625 26.0415 312.5V187.5C26.0415 74.3751 74.3748 26.0417 187.5 26.0417H312.5C425.625 26.0417 473.958 74.3751 473.958 187.5V312.5C473.958 425.625 425.625 473.958 312.5 473.958ZM187.5 57.2917C91.4582 57.2917 57.2915 91.4584 57.2915 187.5V312.5C57.2915 408.542 91.4582 442.708 187.5 442.708H312.5C408.542 442.708 442.708 408.542 442.708 312.5V187.5C442.708 91.4584 408.542 57.2917 312.5 57.2917H187.5Z" fill="#F2F2F2"/>
</svg>
