<svg width="197" height="210" viewBox="0 0 197 210" fill="none" xmlns="http://www.w3.org/2000/svg">
<path d="M72.5817 176.465C25.0234 190.732 25.0233 152.686 6 147.93M139.163 205V168.19C139.52 163.654 138.907 159.095 137.366 154.814C135.824 150.534 133.389 146.631 130.222 143.364C160.089 140.035 191.478 128.716 191.478 76.7826C191.475 63.5027 186.367 50.7321 177.21 41.1139C181.546 29.4954 181.24 16.6532 176.354 5.25485C176.354 5.25485 165.13 1.92576 139.163 19.3321C117.363 13.4237 94.3824 13.4237 72.5817 19.3321C46.6148 1.92576 35.3911 5.25485 35.3911 5.25485C30.5056 16.6532 30.1991 29.4954 34.535 41.1139C25.3099 50.8034 20.1964 63.6895 20.2675 77.068C20.2675 128.621 51.656 139.94 81.5227 143.65C78.3933 146.883 75.9799 150.74 74.4394 154.968C72.899 159.196 72.266 163.701 72.5817 168.19V205" stroke="#F2F2F2" stroke-width="10" stroke-linecap="round" stroke-linejoin="round"/>
</svg>
