<svg width="200" height="200" viewBox="0 0 200 200" fill="none" xmlns="http://www.w3.org/2000/svg">
<path d="M141.667 16.6667H58.3334C35.3216 16.6667 16.6667 35.3216 16.6667 58.3334V141.667C16.6667 164.679 35.3216 183.333 58.3334 183.333H141.667C164.679 183.333 183.333 164.679 183.333 141.667V58.3334C183.333 35.3216 164.679 16.6667 141.667 16.6667Z" stroke="#F2F2F2" stroke-width="10" stroke-linecap="round" stroke-linejoin="round"/>
<path d="M133.333 94.7501C134.362 101.685 133.177 108.769 129.948 114.992C126.719 121.215 121.609 126.262 115.347 129.414C109.084 132.566 101.987 133.663 95.0648 132.55C88.1426 131.436 81.7479 128.167 76.7902 123.21C71.8326 118.252 68.5644 111.857 67.4505 104.935C66.3366 98.013 67.4338 90.9159 70.586 84.6532C73.7381 78.3905 78.7848 73.2812 85.0081 70.0521C91.2315 66.8229 98.3145 65.6383 105.25 66.6667C112.324 67.7158 118.874 71.0123 123.931 76.0693C128.988 81.1263 132.284 87.6757 133.333 94.7501Z" stroke="#F2F2F2" stroke-width="10" stroke-linecap="round" stroke-linejoin="round"/>
<path d="M145.833 54.1667H145.917" stroke="#F2F2F2" stroke-width="10" stroke-linecap="round" stroke-linejoin="round"/>
</svg>
