<svg width="600" height="600" viewBox="0 0 600 600" fill="none" xmlns="http://www.w3.org/2000/svg">
<path d="M525 250C525 425 300 575 300 575C300 575 75 425 75 250C75 190.326 98.7053 133.097 140.901 90.901C183.097 48.7053 240.326 25 300 25C359.674 25 416.903 48.7053 459.099 90.901C501.295 133.097 525 190.326 525 250Z" stroke="#F2F2F2" stroke-width="30" stroke-linecap="round" stroke-linejoin="round"/>
<path d="M300 325C341.421 325 375 291.421 375 250C375 208.579 341.421 175 300 175C258.579 175 225 208.579 225 250C225 291.421 258.579 325 300 325Z" stroke="#F2F2F2" stroke-width="30" stroke-linecap="round" stroke-linejoin="round"/>
</svg>
