<svg width="540" height="540" viewBox="0 0 540 540" fill="none" xmlns="http://www.w3.org/2000/svg">
<path d="M405 161.1C403.65 160.875 402.075 160.875 400.725 161.1C369.675 159.975 344.925 134.55 344.925 103.05C344.925 70.875 370.8 45 402.975 45C435.15 45 461.025 71.1 461.025 103.05C460.8 134.55 436.05 159.975 405 161.1Z" stroke="#F2F2F2" stroke-width="20" stroke-linecap="round" stroke-linejoin="round"/>
<path d="M381.825 324.9C412.65 330.075 446.625 324.675 470.475 308.7C502.2 287.55 502.2 252.9 470.475 231.75C446.4 215.775 411.975 210.375 381.15 215.775" stroke="#F2F2F2" stroke-width="20" stroke-linecap="round" stroke-linejoin="round"/>
<path d="M134.325 161.1C135.675 160.875 137.25 160.875 138.6 161.1C169.65 159.975 194.4 134.55 194.4 103.05C194.4 70.875 168.525 45 136.35 45C104.175 45 78.2999 71.1 78.2999 103.05C78.5249 134.55 103.275 159.975 134.325 161.1Z" stroke="#F2F2F2" stroke-width="20" stroke-linecap="round" stroke-linejoin="round"/>
<path d="M157.5 324.9C126.675 330.075 92.7 324.675 68.85 308.7C37.125 287.55 37.125 252.9 68.85 231.75C92.925 215.775 127.35 210.375 158.175 215.775" stroke="#F2F2F2" stroke-width="20" stroke-linecap="round" stroke-linejoin="round"/>
<path d="M270 329.175C268.65 328.95 267.075 328.95 265.725 329.175C234.675 328.05 209.925 302.625 209.925 271.125C209.925 238.95 235.8 213.075 267.975 213.075C300.15 213.075 326.025 239.175 326.025 271.125C325.8 302.625 301.05 328.275 270 329.175Z" stroke="#F2F2F2" stroke-width="20" stroke-linecap="round" stroke-linejoin="round"/>
<path d="M204.525 400.05C172.8 421.2 172.8 455.85 204.525 477C240.525 501.075 299.475 501.075 335.475 477C367.2 455.85 367.2 421.2 335.475 400.05C299.7 376.2 240.525 376.2 204.525 400.05Z" stroke="#F2F2F2" stroke-width="20" stroke-linecap="round" stroke-linejoin="round"/>
</svg>
