<svg width="200" height="200" viewBox="0 0 200 200" fill="none" xmlns="http://www.w3.org/2000/svg">
<path d="M191.667 25.0001C183.686 30.629 174.851 34.9343 165.5 37.7501C160.481 31.9793 153.811 27.8892 146.392 26.0328C138.973 24.1764 131.162 24.6434 124.017 27.3705C116.872 30.0977 110.737 34.9534 106.441 41.281C102.146 47.6087 99.8974 55.1029 99.9999 62.7501V71.0834C85.3552 71.4631 70.8439 68.2152 57.7583 61.6288C44.6728 55.0424 33.4192 45.322 24.9999 33.3334C24.9999 33.3334 -8.33341 108.333 66.6666 141.667C49.5043 153.316 29.0596 159.158 8.33325 158.333C83.3332 200 175 158.333 175 62.5001C174.992 60.1788 174.769 57.8633 174.333 55.5834C182.838 47.1958 188.84 36.606 191.667 25.0001V25.0001Z" stroke="#F2F2F2" stroke-width="10" stroke-linecap="round" stroke-linejoin="round"/>
</svg>
